<?xml version="1.0" standalone="no"?>
<!DOCTYPE svg PUBLIC "-//W3C//DTD SVG 20010904//EN"
 "http://www.w3.org/TR/2001/REC-SVG-20010904/DTD/svg10.dtd">
<svg version="1.0" xmlns="http://www.w3.org/2000/svg"
 width="2007.000000pt" height="2005.000000pt" viewBox="0 0 2007.000000 2005.000000"
 preserveAspectRatio="xMidYMid meet">

<g transform="translate(0.000000,2005.000000) scale(0.100000,-0.100000)"
fill="#ffffff" stroke="none">
<path d="M9225 20040 c-624 -12 -1000 -31 -1540 -80 -1495 -137 -2954 -425
-3777 -746 -563 -219 -1230 -722 -1917 -1444 -817 -858 -1080 -1293 -1356
-2240 -287 -983 -463 -2049 -554 -3340 -90 -1273 -101 -2741 -31 -3970 92
-1597 323 -2959 680 -4005 185 -542 321 -804 627 -1210 581 -771 1373 -1511
2065 -1931 235 -143 444 -236 782 -349 950 -316 2296 -553 3806 -669 789 -61
2596 -74 3605 -26 717 34 1692 142 2490 276 956 160 1816 394 2258 616 973
487 2394 1911 2792 2798 546 1215 915 3763 915 6310 0 1005 -61 2043 -181
3075 -181 1560 -495 2826 -861 3465 -485 847 -1823 2143 -2625 2543 -492 246
-1427 491 -2523 661 -862 134 -1851 229 -2675 255 -446 15 -1480 21 -1980 11z"/>
</g>

<g transform="translate(0.000000,2005.000000) scale(0.100000,-0.100000)"
fill="#da251c" stroke="none">
<path d="M9225 20040 c-624 -12 -1000 -31 -1540 -80 -1495 -137 -2954 -425
-3777 -746 -563 -219 -1230 -722 -1917 -1444 -817 -858 -1080 -1293 -1356
-2240 -287 -983 -463 -2049 -554 -3340 -90 -1273 -101 -2741 -31 -3970 92
-1597 323 -2959 680 -4005 185 -542 321 -804 627 -1210 581 -771 1373 -1511
2065 -1931 235 -143 444 -236 782 -349 950 -316 2296 -553 3806 -669 789 -61
2596 -74 3605 -26 717 34 1692 142 2490 276 956 160 1816 394 2258 616 973
487 2394 1911 2792 2798 546 1215 915 3763 915 6310 0 1005 -61 2043 -181
3075 -181 1560 -495 2826 -861 3465 -485 847 -1823 2143 -2625 2543 -492 246
-1427 491 -2523 661 -862 134 -1851 229 -2675 255 -446 15 -1480 21 -1980 11z
m5068 -3059 c28 -10 68 -26 89 -35 34 -15 37 -14 62 5 22 18 35 20 74 14 213
-30 689 -197 972 -341 201 -101 319 -181 426 -288 101 -101 148 -181 159 -269
6 -46 2 -63 -33 -147 -179 -428 -923 -1935 -1225 -2480 -383 -693 -519 -868
-847 -1089 -137 -93 -151 -106 -129 -112 13 -4 130 -12 259 -18 414 -21 492
-36 724 -142 133 -61 595 -299 666 -344 48 -30 55 -64 41 -205 -27 -254 -78
-476 -120 -514 -23 -21 -210 -68 -536 -136 -713 -147 -1393 -336 -1467 -407
-38 -37 -37 -82 8 -230 67 -222 181 -492 380 -900 90 -186 122 -241 161 -282
46 -47 53 -51 96 -51 66 0 107 39 151 148 77 185 237 373 491 577 113 91 250
185 269 185 7 0 45 -64 86 -142 83 -163 158 -296 271 -483 109 -179 121 -218
127 -387 9 -295 -72 -701 -270 -1338 -33 -107 -61 -198 -62 -202 -2 -10 374
-359 544 -505 476 -411 877 -683 1085 -737 94 -25 124 -3 176 129 41 104 73
252 99 450 32 243 52 305 108 326 65 25 162 -43 248 -174 95 -144 182 -339
399 -900 71 -185 150 -346 204 -417 67 -89 85 -135 89 -225 3 -67 0 -91 -22
-149 -15 -38 -30 -74 -35 -80 -5 -6 -23 -39 -40 -72 -38 -75 -40 -124 -6 -196
67 -144 -4 -228 -236 -279 -129 -28 -335 -50 -474 -51 -147 0 -210 15 -434
107 -531 216 -1074 515 -1543 848 -190 135 -329 247 -522 420 -92 84 -171 153
-175 155 -4 1 -97 -84 -207 -189 -490 -472 -947 -822 -1298 -993 -155 -76
-322 -116 -637 -152 l-155 -17 -125 129 c-376 388 -457 497 -632 848 -156 314
-167 356 -168 679 -1 406 -20 432 -137 187 -150 -316 -150 -316 -199 -360 -53
-47 -286 -166 -446 -229 -256 -100 -428 -92 -589 26 -138 102 -429 408 -473
499 -29 57 -74 89 -217 149 l-88 37 0 222 c0 344 14 394 133 473 139 93 503
264 631 297 76 20 95 33 231 156 259 233 495 527 495 615 0 23 -4 25 -40 25
-25 0 -92 -20 -171 -50 -187 -73 -507 -167 -864 -255 -171 -42 -316 -81 -322
-88 -7 -7 -35 -98 -63 -202 -28 -105 -69 -257 -91 -340 -177 -663 -453 -1243
-777 -1633 -90 -110 -178 -182 -359 -299 -141 -90 -414 -227 -480 -241 -89
-19 -180 12 -299 102 -186 140 -334 372 -390 611 -28 117 -28 697 -1 859 43
254 125 413 283 553 36 32 97 99 136 150 258 343 726 1200 926 1693 95 236
128 373 143 600 12 175 22 204 81 232 20 10 39 26 43 37 9 29 -32 126 -168
394 -150 297 -187 392 -187 484 0 62 2 67 38 103 43 43 120 74 225 92 99 17
642 17 760 0 48 -7 99 -18 113 -24 23 -11 24 -16 19 -52 -4 -23 -25 -94 -47
-160 -21 -65 -38 -130 -36 -145 3 -25 5 -26 58 -24 95 3 307 61 820 225 462
148 1726 585 1798 622 56 29 67 57 67 176 0 184 -36 234 -169 232 -155 -2
-770 -165 -976 -259 -84 -38 -128 -76 -151 -130 -10 -24 -25 -46 -32 -49 -23
-8 -124 22 -319 95 -538 202 -622 273 -842 709 -273 543 -384 931 -596 2082
-59 320 -91 431 -165 578 -69 134 -148 241 -301 405 -178 193 -202 235 -188
345 10 90 27 120 77 142 165 73 504 64 937 -25 240 -49 1038 -251 1238 -313
74 -24 76 -18 26 57 -100 149 -97 231 11 300 150 95 1402 592 1900 754 363
118 558 147 1460 216 327 25 403 26 468 2z m1608 -3861 c314 -24 524 -71 704
-159 261 -128 386 -303 388 -545 1 -133 -46 -258 -160 -429 -110 -166 -268
-311 -533 -489 -219 -148 -372 -211 -465 -194 -45 9 -45 23 -1 129 45 111 62
165 86 275 19 87 60 396 60 454 0 22 -31 53 -192 190 -268 227 -343 289 -498
407 -165 126 -205 163 -230 216 -37 77 -22 130 40 145 51 12 644 12 801 0z
m-11071 -8850 c114 -33 216 -114 265 -209 30 -61 33 -106 6 -121 -29 -15 -111
-12 -165 6 -33 11 -63 33 -95 66 -55 60 -93 78 -160 78 -61 0 -97 -13 -135
-48 -40 -38 -50 -69 -32 -97 9 -13 92 -62 195 -114 248 -127 313 -192 327
-329 5 -46 2 -68 -14 -104 -43 -99 -157 -185 -302 -230 -107 -33 -253 -32
-328 1 -133 60 -262 198 -262 281 0 26 6 33 37 46 68 29 162 0 253 -77 107
-90 235 -101 316 -26 19 18 37 46 40 65 6 29 2 37 -34 71 -24 23 -71 51 -119
70 -215 88 -284 136 -332 233 -79 158 -6 315 193 413 114 56 213 63 346 25z
m4220 -9 c131 -41 225 -134 272 -270 33 -96 33 -274 0 -381 -38 -121 -89 -207
-172 -291 -113 -114 -242 -169 -400 -169 -144 0 -253 44 -344 140 -154 161
-179 395 -66 635 87 188 229 311 404 351 81 18 222 11 306 -15z m-2975 -20
c37 -15 45 -27 45 -68 0 -60 -43 -72 -325 -92 -71 -5 -142 -14 -157 -21 -35
-16 -45 -48 -54 -165 l-7 -95 159 0 c154 0 227 -9 246 -28 20 -20 20 -77 0
-102 -20 -25 -24 -25 -204 -31 -100 -4 -195 -11 -210 -17 -39 -16 -64 -62 -88
-163 -31 -132 -50 -119 179 -119 109 0 219 -3 245 -6 44 -7 46 -8 46 -41 0
-42 -32 -76 -86 -94 -55 -17 -585 -25 -643 -9 l-43 11 4 42 c4 40 192 963 204
1001 6 17 21 18 333 14 226 -3 335 -8 356 -17z m572 -3 c-3 -13 -47 -212 -96
-443 -95 -440 -111 -507 -142 -566 -23 -45 -32 -49 -129 -49 -58 0 -83 4 -94
16 -19 18 -19 19 -6 64 6 19 53 247 106 505 52 259 97 476 99 483 3 9 39 12
136 12 131 0 131 0 126 -22z m1596 -40 c-26 -35 -104 -135 -172 -223 -152
-196 -271 -374 -305 -460 -14 -35 -33 -108 -42 -162 -18 -106 -34 -147 -63
-163 -29 -15 -193 -13 -216 3 -20 15 -19 20 15 132 17 53 22 97 23 180 1 136
-17 210 -111 475 -87 245 -87 246 -63 260 26 13 125 13 175 -1 64 -18 80 -43
135 -217 29 -89 55 -164 60 -166 12 -8 68 55 188 210 137 177 162 191 331 193
l93 1 -48 -62z m1697 55 c0 -5 -25 -132 -55 -283 -69 -340 -81 -482 -46 -553
18 -37 31 -49 67 -63 52 -20 133 -15 189 12 85 40 127 152 205 539 28 138 60
269 71 292 25 52 66 68 153 60 77 -7 96 -15 96 -37 0 -21 -84 -438 -106 -525
-106 -423 -250 -557 -583 -543 -98 4 -116 8 -175 37 -78 38 -137 100 -179 189
-28 61 -30 69 -24 155 4 71 88 552 122 705 5 21 9 22 135 22 72 0 130 -3 130
-7z m1865 -1768 c20 -20 25 -34 25 -78 0 -39 6 -62 19 -78 18 -23 25 -24 210
-29 231 -7 226 -5 225 -113 -2 -126 -102 -365 -242 -577 -114 -172 -238 -274
-467 -385 -197 -96 -266 -108 -316 -54 -32 34 -53 91 -47 129 3 27 14 31 113
49 160 29 389 193 551 395 76 94 143 224 147 281 4 67 -3 68 -414 73 l-357 5
-10 -49 c-6 -27 -16 -78 -22 -114 -14 -75 -33 -117 -57 -124 -50 -13 -86 -17
-126 -11 -74 11 -73 11 -49 122 12 54 29 145 37 203 8 58 17 119 20 137 l6 31
237 4 c282 4 285 5 296 90 12 91 43 115 149 117 38 1 53 -4 72 -24z m-5247
-41 c22 -15 24 -20 18 -67 -4 -29 -21 -112 -37 -185 -17 -74 -28 -136 -26
-138 3 -3 78 6 168 20 324 50 335 51 396 38 103 -21 151 -73 122 -130 -17 -33
-227 -295 -303 -379 -66 -72 -139 -123 -176 -123 -42 0 -94 40 -98 75 -3 34
16 64 128 210 39 49 70 94 70 99 0 15 -259 -14 -313 -36 -15 -6 -34 -23 -42
-39 -14 -27 -85 -361 -85 -400 0 -38 34 -42 355 -51 171 -4 326 -11 345 -16
32 -7 35 -11 38 -48 2 -33 -3 -48 -23 -72 -45 -54 -73 -57 -475 -57 l-365 0
-50 25 c-27 14 -56 36 -63 50 -18 35 -10 119 28 281 17 74 32 162 33 196 3 90
-4 95 -157 104 -68 4 -134 12 -145 19 -24 12 -27 44 -10 102 14 51 45 65 182
84 187 26 198 37 242 238 34 158 54 202 97 215 42 13 115 5 146 -15z m2134
-24 c69 -73 67 -76 -161 -300 -208 -204 -231 -234 -264 -350 -9 -30 -36 -156
-62 -280 -53 -264 -77 -350 -104 -374 -26 -23 -159 -19 -174 6 -9 14 15 186
81 580 4 27 -1 25 -193 -72 -201 -101 -245 -117 -290 -106 -29 7 -85 87 -85
121 0 31 22 48 133 99 246 114 667 397 902 606 79 70 136 109 164 110 8 0 31
-18 53 -40z m1930 -49 c133 -15 129 -9 107 -138 -33 -187 -139 -713 -170 -842
-51 -214 -73 -244 -186 -245 -55 -1 -67 2 -81 21 -31 40 -85 45 -554 50 l-448
5 0 98 0 97 448 6 c502 7 556 13 602 64 20 22 29 45 34 90 8 73 -4 109 -41
125 -19 8 -159 14 -423 18 -397 6 -430 9 -443 43 -8 21 9 99 24 108 45 29 130
36 608 49 189 5 345 11 348 13 2 2 10 49 18 103 8 55 17 109 20 121 l5 22
-463 3 c-428 3 -465 4 -491 21 -19 13 -26 24 -21 35 4 9 12 39 18 65 14 56 14
56 155 67 143 11 833 11 934 1z"/>
<path d="M13555 15580 c-38 -8 -1019 -325 -2095 -677 -566 -185 -961 -321
-975 -334 -12 -12 -13 -13 632 52 775 77 2078 220 2415 264 61 8 116 20 123
25 30 25 115 427 118 554 2 74 1 79 -24 98 -30 23 -129 32 -194 18z"/>
<path d="M13259 14080 c-110 -17 -451 -109 -1159 -311 -495 -142 -1343 -389
-1347 -393 -6 -6 -62 -285 -69 -343 -6 -61 -6 -62 17 -56 13 3 170 63 349 133
582 229 1033 370 1450 454 220 44 340 58 571 65 273 10 285 14 336 106 45 83
93 218 93 264 0 23 -8 48 -19 62 -16 20 -29 24 -92 26 -41 1 -99 -2 -130 -7z"/>
<path d="M12635 12578 c-51 -18 -151 -95 -164 -126 -19 -44 -1 -74 117 -196
154 -159 202 -225 202 -281 0 -43 33 -50 163 -36 136 15 282 45 314 66 47 31
22 71 -77 121 -134 68 -215 140 -341 304 -115 150 -147 172 -214 148z"/>
<path d="M12120 10109 c-36 -11 -281 -92 -545 -179 -907 -300 -1289 -395
-1802 -449 -96 -10 -177 -22 -180 -25 -8 -8 -39 -229 -48 -335 -3 -42 -2 -82
3 -89 8 -11 27 -9 108 13 200 55 624 211 880 326 197 88 222 93 454 86 363
-11 556 -45 729 -129 88 -42 116 -62 186 -131 130 -130 170 -242 146 -410 -12
-89 -310 -1093 -442 -1488 -43 -130 -103 -293 -134 -363 -30 -70 -55 -129 -55
-132 0 -2 33 -4 73 -4 104 0 181 -16 263 -56 86 -41 171 -126 198 -200 63
-169 125 -195 285 -119 181 87 382 258 544 463 143 179 383 557 465 731 34 71
43 101 39 125 -9 54 -79 211 -272 607 -338 692 -514 1100 -655 1516 -63 186
-72 207 -103 241 -25 27 -52 27 -137 1z"/>
<path d="M8795 4078 c-52 -19 -115 -71 -160 -130 -177 -235 -110 -573 118
-604 87 -12 179 51 252 171 57 96 78 178 73 294 -3 85 -8 106 -33 156 -43 83
-90 118 -163 122 -31 1 -70 -3 -87 -9z"/>
</g>
</svg>
